<?xml version="1.0" encoding="utf-8"?>
<!-- Generator: Adobe Illustrator 19.2.0, SVG Export Plug-In . SVG Version: 6.00 Build 0)  -->
<svg version="1.1" id="Layer_1" xmlns="http://www.w3.org/2000/svg" xmlns:xlink="http://www.w3.org/1999/xlink" x="0px" y="0px"
	 viewBox="0 0 96 63" style="enable-background:new 0 0 96 63;" xml:space="preserve">
<style type="text/css">
	.st0{opacity:0.8;}
	.st1{display:none;}
	.st2{fill:#FFFFFF;}
</style>
<image style="display:none;overflow:visible;" width="96" height="63" xlink:href="controls.png" >
</image>
<g class="st0">
	<circle class="st1" cx="15.9" cy="15.7" r="15.7"/>
	<polygon class="st2" points="19.8,9.9 18.9,9 12,15.7 18.9,22.3 19.8,21.4 13.8,15.7 	"/>
</g>
<g>
	<circle class="st1" cx="15.9" cy="47.3" r="15.7"/>
	<polygon class="st2" points="19.8,41.6 18.9,40.7 12,47.3 18.9,54 19.8,53.1 13.8,47.3 	"/>
</g>
<g>
	<circle class="st1" cx="59" cy="47.3" r="15.7"/>
	<polygon class="st2" points="61.1,47.3 55.1,53.1 56,54 62.8,47.3 56,40.7 55.1,41.6 	"/>
</g>
<g class="st0">
	<circle class="st1" cx="59" cy="15.7" r="15.7"/>
	<polygon class="st2" points="61.1,15.7 55.1,21.4 56,22.3 62.8,15.7 56,9 55.1,9.9 	"/>
</g>
</svg>
